<?xml version="1.0" encoding="UTF-8" standalone="no"?>
<svg
   xmlns:dc="http://purl.org/dc/elements/1.1/"
   xmlns:cc="http://creativecommons.org/ns#"
   xmlns:rdf="http://www.w3.org/1999/02/22-rdf-syntax-ns#"
   xmlns:svg="http://www.w3.org/2000/svg"
   xmlns="http://www.w3.org/2000/svg"
   xmlns:sodipodi="http://sodipodi.sourceforge.net/DTD/sodipodi-0.dtd"
   xmlns:inkscape="http://www.inkscape.org/namespaces/inkscape"
   width="172"
   height="24"
   viewBox="0 0 172 24"
   fill="none"
   version="1.1"
   id="svg654"
   sodipodi:docname="logoAlternativo.svg"
   inkscape:version="1.0.2-2 (e86c870879, 2021-01-15)">
  <metadata
     id="metadata660">
    <rdf:RDF>
      <cc:Work
         rdf:about="">
        <dc:format>image/svg+xml</dc:format>
        <dc:type
           rdf:resource="http://purl.org/dc/dcmitype/StillImage" />
      </cc:Work>
    </rdf:RDF>
  </metadata>
  <defs
     id="defs658" />
  <sodipodi:namedview
     pagecolor="#ffffff"
     bordercolor="#666666"
     borderopacity="1"
     objecttolerance="10"
     gridtolerance="10"
     guidetolerance="10"
     inkscape:pageopacity="0"
     inkscape:pageshadow="2"
     inkscape:window-width="1920"
     inkscape:window-height="1013"
     id="namedview656"
     showgrid="false"
     inkscape:snap-others="false"
     inkscape:object-nodes="false"
     inkscape:snap-nodes="false"
     inkscape:snap-grids="false"
     inkscape:snap-to-guides="false"
     inkscape:zoom="9.0639535"
     inkscape:cx="80.222141"
     inkscape:cy="12.251495"
     inkscape:window-x="-9"
     inkscape:window-y="-9"
     inkscape:window-maximized="1"
     inkscape:current-layer="svg654" />
  <path
     d="m 38.050973,9.4543421 h -3.03133 V 21.559907 H 31.6018 V 9.4543421 H 29.670004 V 6.9962254 H 31.6018 V 5.9654112 c 0,-1.6739932 0.495352,-2.8898295 1.48606,-3.6475277 1.010462,-0.7753173 2.585572,-1.1629765 4.725441,-1.1629765 v 2.5109748 c -1.030373,0 -1.753457,0.1762104 -2.169568,0.5286295 -0.416142,0.3347971 -0.62409,0.9250974 -0.62409,1.7708999 v 1.0308142 h 3.03133 z"
     fill="white"
     id="path636"
     style="fill:#ffffff;stroke-width:1.02772" />
  <path
     d="m 43.54969,4.3629518 c -0.614241,0 -1.129379,-0.193102 -1.545378,-0.5793239 C 41.588174,3.397407 41.380114,2.9192383 41.380114,2.349102 c 0,-0.5701262 0.20806,-1.0483056 0.624198,-1.43451971 0.415999,-0.38621885 0.931137,-0.57932777 1.545378,-0.57932777 0.594358,0 1.099644,0.19310892 1.515781,0.57932777 0.416002,0.38621411 0.624084,0.86439351 0.624084,1.43451971 0,0.5701363 -0.208082,1.048305 -0.624084,1.4345259 -0.416137,0.3862219 -0.921423,0.5793239 -1.515781,0.5793239 z m 1.664282,2.0138502 v 15.200453 h -3.38799 V 6.376802 Z"
     fill="white"
     id="path638"
     style="fill:#ffffff;stroke-width:1.0499" />
  <path
     d="m 57.814043,3.8574681 c 1.287827,0 2.437075,0.2833421 3.447442,0.8500393 1.030365,0.5666862 1.832787,1.406229 2.40737,2.518621 0.574562,1.112379 0.861873,2.455681 0.861873,4.0297726 V 21.487823 H 61.17244 v -9.696676 c 0,-1.553145 -0.366639,-2.7390586 -1.099659,-3.5575846 -0.733149,-0.839529 -1.733675,-1.2593015 -3.001705,-1.2593015 -1.268048,0 -2.278521,0.4197725 -3.031436,1.2593015 -0.733143,0.818526 -1.099656,2.0044396 -1.099656,3.5575846 v 9.696676 H 49.551975 V 4.1408102 h 3.388009 v 1.9834229 c 0.554803,-0.713611 1.258101,-1.269812 2.110129,-1.6685937 0.871788,-0.3987809 1.793103,-0.5981713 2.76393,-0.5981713 z"
     fill="white"
     id="path640"
     style="fill:#ffffff;stroke-width:1.12161" />
  <path
     d="m 67.723024,12.735625 c 0,-1.742115 0.336914,-3.2846656 1.01049,-4.6279846 0.693469,-1.3432655 1.624725,-2.3821896 2.793655,-3.1167908 1.188807,-0.7555916 2.496532,-1.1333815 3.923033,-1.1333815 1.28793,0 2.407363,0.2728588 3.358376,0.8185535 0.97127,0.5247146 1.74364,1.1858475 2.318195,1.9834094 V 4.1408102 h 3.41764 V 21.487823 h -3.41764 v -2.581638 c -0.574555,0.818577 -1.356866,1.500672 -2.348028,2.046379 -0.990593,0.545722 -2.119946,0.818584 -3.387995,0.818584 -1.406723,0 -2.694544,-0.37781 -3.863581,-1.133326 -1.16893,-0.776571 -2.100186,-1.847056 -2.793655,-3.211244 -0.673576,-1.385238 -1.01049,-2.948963 -1.01049,-4.690953 z m 13.403749,0.0629 c 0,-1.196386 -0.237564,-2.235225 -0.713793,-3.1167556 -0.455226,-0.881515 -1.059649,-1.553163 -1.812132,-2.014919 -0.753242,-0.461744 -1.565613,-0.6926206 -2.437296,-0.6926206 -0.871822,0 -1.68417,0.2308766 -2.437082,0.6926206 -0.752909,0.440761 -1.367041,1.101876 -1.84263,1.983403 -0.455686,0.8605806 -0.683516,1.8889506 -0.683516,3.0853356 0,1.196275 0.22783,2.245709 0.683516,3.148293 0.475589,0.902471 1.089721,1.595033 1.84263,2.077796 0.772681,0.461825 1.585061,0.692674 2.437082,0.692674 0.871683,0 1.684054,-0.230849 2.437296,-0.692674 0.752483,-0.461707 1.356906,-1.133318 1.812132,-2.014846 0.476229,-0.902471 0.713793,-1.951907 0.713793,-3.148299 z"
     fill="white"
     id="path642"
     style="fill:#ffffff;stroke-width:1.12161" />
  <path
     d="m 97.256886,3.8574681 c 1.28727,0 2.436431,0.2833421 3.447464,0.8500393 1.02976,0.5666862 1.83311,1.406229 2.40771,2.518621 0.57454,1.112379 0.86177,2.455681 0.86177,4.0297726 v 10.231922 h -3.35899 v -9.696676 c 0,-1.553145 -0.36685,-2.7390586 -1.099463,-3.5575846 -0.732521,-0.839529 -1.733653,-1.2593015 -3.002137,-1.2593015 -1.26736,0 -2.278393,0.4197725 -3.030879,1.2593015 -0.733687,0.818526 -1.099427,2.0044396 -1.099427,3.5575846 v 9.696676 H 88.995156 V 4.1408102 h 3.387778 v 1.9834229 c 0.554695,-0.713611 1.257439,-1.269812 2.109353,-1.6685937 0.871816,-0.3987809 1.793381,-0.5981713 2.764599,-0.5981713 z"
     fill="white"
     id="path644"
     style="fill:#ffffff;stroke-width:1.12161" />
  <path
     d="m 162.77025,16.222328 c 0,0.888694 -0.24969,1.724123 -0.74905,2.506147 -0.48073,0.78204 -1.19996,1.439768 -2.16027,1.972965 -0.94043,0.533197 -2.05975,0.853181 -3.35924,0.959842 v 2.159539 h -1.95005 v -2.159539 c -1.87963,-0.160043 -3.39894,-0.68436 -4.55906,-1.573054 -1.16022,-0.8887 -1.74029,-2.061756 -1.74029,-3.519276 h 3.6595 c 0.0593,0.693125 0.31062,1.270837 0.75025,1.732994 0.43991,0.44429 1.0697,0.728767 1.8896,0.853181 v -5.865492 c -1.33923,-0.30223 -2.42982,-0.604338 -3.26966,-0.906568 -0.83965,-0.319868 -1.55902,-0.817553 -2.15883,-1.493039 -0.58021,-0.675373 -0.87086,-1.5995851 -0.87086,-2.7727581 0,-1.47523 0.58007,-2.6927692 1.74029,-3.6525779 1.16012,-0.9775788 2.67943,-1.5463474 4.55906,-1.706319 V 0.59880677 h 1.95005 V 2.758373 c 1.75917,0.1421905 3.16929,0.6398698 4.22862,1.4930289 1.08087,0.8353883 1.69089,1.9907187 1.8301,3.465976 h -3.65969 c -0.0588,-0.550996 -0.29942,-1.039787 -0.71932,-1.4663672 -0.41992,-0.4443606 -0.98017,-0.7465189 -1.67971,-0.9064895 V 11.10335 c 1.3393,0.284361 2.42887,0.586586 3.26975,0.906452 0.83957,0.302226 1.54913,0.791037 2.12923,1.466407 0.58016,0.657619 0.86958,1.573064 0.86958,2.746119 z M 151.73166,7.9573449 c 0,0.728753 0.241,1.297463 0.72039,1.7063536 0.49963,0.4087825 1.2002,0.7375295 2.09959,0.9863655 V 5.26453 c -0.85974,0.088874 -1.54916,0.3643813 -2.06969,0.8265101 -0.49928,0.4621299 -0.75029,1.0842278 -0.75029,1.8663048 z m 4.77003,11.1977821 c 0.87968,-0.124414 1.56911,-0.435523 2.06983,-0.933201 0.4993,-0.515439 0.74901,-1.128658 0.74901,-1.839664 0,-0.710884 -0.24971,-1.261957 -0.74901,-1.652975 -0.48069,-0.408776 -1.17021,-0.73764 -2.06983,-0.986482 z"
     fill="#49aa26"
     id="path652"
     style="stroke-width:1.12161;fill:#008000" />
  <text
     xml:space="preserve"
     style="font-style:normal;font-variant:normal;font-weight:normal;font-stretch:normal;font-size:44.8606px;line-height:1.25;font-family:'Segoe UI Symbol';-inkscape-font-specification:'Segoe UI Symbol';fill:#ffffff;fill-opacity:1;stroke:none;stroke-width:1.12161;"
     x="-8.6590872"
     y="3.6589093"
     id="text734"
     transform="scale(0.98522875,1.0149927)"><tspan
       sodipodi:role="line"
       id="tspan732"
       x="-8.6590872"
       y="3.6589093"
       style="stroke-width:1.12161;fill:#ffffff;" /></text>
  <path
     d="m 24.437856,15.612678 c 0,0.842561 -0.282159,1.634613 -0.846487,2.376041 -0.543108,0.741436 -1.355872,1.365018 -2.440845,1.870529 -1.062491,0.505512 -2.327222,0.808882 -3.795503,0.910008 v 2.04742 h -2.20365 v -2.04742 C 13.027645,20.617525 11.310938,20.120424 10.000013,19.277869 8.6890434,18.435314 8.0335804,17.323163 8.0335804,15.941315 h 4.1351156 c 0.06856,0.657142 0.350793,1.20485 0.847728,1.643018 0.496905,0.421225 1.208569,0.690931 2.134947,0.808882 V 12.832256 C 13.63819,12.545711 12.405903,12.25929 11.457018,11.972752 10.508155,11.669494 9.6953483,11.197653 9.0174091,10.557231 8.3619705,9.9169217 8.0335804,9.0406927 8.0335804,7.9284369 c 0,-1.3986429 0.655463,-2.5529696 1.9664326,-3.4629458 1.310925,-0.9268252 3.027632,-1.4660636 5.151358,-1.6177288 V 0.80031666 h 2.20365 V 2.8477623 c 1.98764,0.1348109 3.580763,0.6066478 4.778081,1.4155116 1.221074,0.7920181 1.910232,1.887363 2.067548,3.2860291 H 20.065543 C 19.998124,7.0269096 19.727203,6.5634976 19.25278,6.1590651 18.778352,5.7377763 18.145345,5.4513036 17.355021,5.2996406 v 5.4598444 c 1.513195,0.269588 2.744245,0.556127 3.694367,0.859385 0.948882,0.28654 1.750412,0.749958 2.40589,1.390276 0.655486,0.62347 0.982578,1.491381 0.982578,2.603532 z M 11.965158,7.7768036 c 0,0.6909255 0.272169,1.2301121 0.814033,1.6177761 0.56432,0.387552 1.355896,0.6992313 2.37218,0.9351543 V 5.2238024 c -0.97134,0.084263 -1.750419,0.3454637 -2.338483,0.7835994 -0.5643,0.4381353 -0.84773,1.0279362 -0.84773,1.7694018 z m 5.389863,10.6164114 c 0.993799,-0.117954 1.772906,-0.412909 2.338474,-0.884756 0.56433,-0.488666 0.846486,-1.070052 0.846486,-1.744145 0,-0.673981 -0.282156,-1.196436 -0.846486,-1.567151 -0.543107,-0.387553 -1.322157,-0.699352 -2.338474,-0.935268 z"
     fill="#49aa26"
     id="path652-1"
     style="stroke-width:1.16085;fill:#008000" />
  <path
     d="m 125.11624,13.083301 c 0,-1.742108 0.33694,-3.2846596 1.01055,-4.6279796 0.6934,-1.343265 1.6247,-2.3821875 2.79368,-3.1167901 1.18881,-0.7555921 2.49648,-1.1333823 3.92292,-1.1333823 1.28795,0 2.40748,0.272859 3.35846,0.8185537 0.97122,0.5247162 1.74357,1.1858483 2.3182,1.98341 V 4.4884928 h 3.41761 V 21.835499 h -3.41761 v -2.581631 c -0.57463,0.818576 -1.35689,1.50067 -2.34811,2.046379 -0.99051,0.545722 -2.11995,0.818583 -3.38788,0.818583 -1.40679,0 -2.69463,-0.37781 -3.86359,-1.133332 -1.16898,-0.776565 -2.10028,-1.847049 -2.79368,-3.211238 -0.67361,-1.385237 -1.01055,-2.948968 -1.01055,-4.690959 z m 13.40381,0.06293 c 0,-1.196386 -0.23754,-2.235225 -0.71385,-3.116758 -0.45516,-0.8815216 -1.05957,-1.5531696 -1.81207,-2.0149266 -0.75327,-0.461744 -1.56564,-0.692619 -2.43733,-0.692619 -0.87186,0 -1.68419,0.230875 -2.4371,0.692619 -0.7529,0.440761 -1.36705,1.10187 -1.84263,1.983405 -0.45565,0.8605806 -0.68351,1.8889496 -0.68351,3.0853356 0,1.196274 0.22786,2.24571 0.68351,3.148292 0.47558,0.902468 1.08973,1.595031 1.84263,2.077797 0.77276,0.461824 1.58504,0.692674 2.4371,0.692674 0.87169,0 1.68406,-0.23085 2.43733,-0.692674 0.7525,-0.461707 1.35691,-1.133318 1.81207,-2.014853 0.47631,-0.902467 0.71385,-1.951905 0.71385,-3.148292 z"
     fill="white"
     id="path642-5"
     style="fill:#ffffff;stroke-width:1.12161" />
  <path
     d="m 106.48302,12.904269 c 0,-1.880748 0.36459,-3.5291506 1.09264,-4.9453156 0.7508,-1.4382422 1.77886,-2.5445701 3.08675,-3.3190083 1.30785,-0.774426 2.8082,-1.1616516 4.5022,-1.1616516 2.14351,0 3.91162,0.5310414 5.30556,1.5931227 1.41427,1.0399532 2.36827,2.5335042 2.86199,4.4807062 h -3.95585 c -0.32159,-0.907249 -0.83565,-1.615298 -1.54335,-2.124209 -0.70658,-0.5089119 -1.59718,-0.7633739 -2.66835,-0.7633739 -1.50035,0 -2.70061,0.5531699 -3.60199,1.6594939 -0.8787,1.084201 -1.31744,2.6109236 -1.31744,4.5802356 0,1.969304 0.43874,3.507073 1.31744,4.613407 0.90138,1.106342 2.10164,1.659454 3.60199,1.659454 2.12199,0 3.5267,-0.962455 4.2117,-2.887482 h 3.95585 c -0.51523,1.858665 -1.48002,3.341109 -2.89425,4.447444 -1.41545,1.084257 -3.17284,1.626331 -5.2733,1.626331 -1.694,0 -3.19435,-0.387265 -4.5022,-1.161665 -1.30789,-0.7966 -2.33595,-1.902826 -3.08675,-3.319017 -0.72805,-1.438159 -1.09264,-3.09773 -1.09264,-4.978472 z"
     fill="white"
     id="path892"
     style="fill:#ffffff;stroke-width:1.19776" />
</svg>
